REM MD5 af4c194fb0938735a114f10f7d145866
FILE "Hissatsu Pachinko Station Now 7 - Magical Circus (Japan).bin" BINARY
  TRACK 01 MODE2/2352
    INDEX 01 00:00:00
  TRACK 02 AUDIO
    INDEX 00 00:41:25
    INDEX 01 00:43:25
  TRACK 03 AUDIO
    INDEX 00 05:54:35
    INDEX 01 05:56:35
  TRACK 04 AUDIO
    INDEX 00 11:32:35
    INDEX 01 11:34:35
REM LEADOUT 16:49:31
